<svg width="26" height="26" viewBox="0 0 26 26" fill="none" xmlns="http://www.w3.org/2000/svg">
<g id="System" clip-path="url(#clip0_24_724)">
<path id="Vector" d="M12.7779 22.75H5.41667C4.84203 22.75 4.29093 22.5217 3.8846 22.1154C3.47827 21.709 3.25 21.1579 3.25 20.5833V7.58329C3.25 7.00866 3.47827 6.45756 3.8846 6.05123C4.29093 5.6449 4.84203 5.41663 5.41667 5.41663H18.4167C18.9913 5.41663 19.5424 5.6449 19.9487 6.05123C20.3551 6.45756 20.5833 7.00866 20.5833 7.58329V11.9166" stroke="black" stroke-width="1.5" stroke-linecap="round" stroke-linejoin="round"/>
<path id="Vector_2" d="M15.1667 19.5C15.1667 20.6492 15.6232 21.7514 16.4359 22.5641C17.2485 23.3767 18.3507 23.8333 19.5 23.8333C20.6493 23.8333 21.7515 23.3767 22.5641 22.5641C23.3768 21.7514 23.8334 20.6492 23.8334 19.5C23.8334 18.3507 23.3768 17.2485 22.5641 16.4358C21.7515 15.6232 20.6493 15.1666 19.5 15.1666C18.3507 15.1666 17.2485 15.6232 16.4359 16.4358C15.6232 17.2485 15.1667 18.3507 15.1667 19.5Z" stroke="black" stroke-width="1.5" stroke-linecap="round" stroke-linejoin="round"/>
<path id="Vector_3" d="M16.25 3.25V7.58333" stroke="black" stroke-width="1.5" stroke-linecap="round" stroke-linejoin="round"/>
<path id="Vector_4" d="M7.58331 3.25V7.58333" stroke="black" stroke-width="1.5" stroke-linecap="round" stroke-linejoin="round"/>
<path id="Vector_5" d="M3.25 11.9166H20.5833" stroke="black" stroke-width="1.5" stroke-linecap="round" stroke-linejoin="round"/>
<path id="Vector_6" d="M19.5 17.8706V19.4999L20.5833 20.5833" stroke="black" stroke-width="1.5" stroke-linecap="round" stroke-linejoin="round"/>
</g>
<defs>
<clipPath id="clip0_24_724">
<rect width="26" height="26" fill="white"/>
</clipPath>
</defs>
</svg>
