<svg width="25" height="26" viewBox="0 0 25 26" fill="none" xmlns="http://www.w3.org/2000/svg">
<g id="Non-categorized" opacity="0.36" clip-path="url(#clip0_22_580)">
<path id="Vector" d="M3.125 10.8333C3.125 11.8292 3.3136 12.8153 3.68005 13.7353C4.04649 14.6554 4.58359 15.4914 5.26068 16.1956C5.93777 16.8997 6.7416 17.4583 7.62627 17.8394C8.51093 18.2205 9.45911 18.4167 10.4167 18.4167C11.3742 18.4167 12.3224 18.2205 13.2071 17.8394C14.0917 17.4583 14.8956 16.8997 15.5727 16.1956C16.2497 15.4914 16.7868 14.6554 17.1533 13.7353C17.5197 12.8153 17.7083 11.8292 17.7083 10.8333C17.7083 9.83748 17.5197 8.85137 17.1533 7.93132C16.7868 7.01126 16.2497 6.17528 15.5727 5.47111C14.8956 4.76693 14.0917 4.20834 13.2071 3.82725C12.3224 3.44615 11.3742 3.25 10.4167 3.25C9.45911 3.25 8.51093 3.44615 7.62627 3.82725C6.7416 4.20834 5.93777 4.76693 5.26068 5.47111C4.58359 6.17528 4.04649 7.01126 3.68005 7.93132C3.3136 8.85137 3.125 9.83748 3.125 10.8333Z" stroke="black" stroke-width="2" stroke-linecap="round" stroke-linejoin="round"/>
<path id="Vector_2" d="M21.875 22.75L15.625 16.25" stroke="black" stroke-width="2" stroke-linecap="round" stroke-linejoin="round"/>
</g>
<defs>
<clipPath id="clip0_22_580">
<rect width="25" height="26" fill="white"/>
</clipPath>
</defs>
</svg>
