<svg width="51" height="52" viewBox="0 0 51 52" fill="none" xmlns="http://www.w3.org/2000/svg">
<g id="System" clip-path="url(#clip0_22_219)">
<path id="Vector" d="M6.375 26C6.375 28.5608 6.86968 31.0965 7.8308 33.4623C8.79192 35.8282 10.2007 37.9778 11.9766 39.7886C13.7525 41.5993 15.8608 43.0357 18.1812 44.0157C20.5015 44.9956 22.9885 45.5 25.5 45.5C28.0115 45.5 30.4985 44.9956 32.8188 44.0157C35.1392 43.0357 37.2475 41.5993 39.0234 39.7886C40.7993 37.9778 42.2081 35.8282 43.1692 33.4623C44.1303 31.0965 44.625 28.5608 44.625 26C44.625 23.4392 44.1303 20.9035 43.1692 18.5377C42.2081 16.1718 40.7993 14.0222 39.0234 12.2114C37.2475 10.4007 35.1392 8.96432 32.8188 7.98435C30.4985 7.00438 28.0115 6.5 25.5 6.5C22.9885 6.5 20.5015 7.00438 18.1812 7.98435C15.8608 8.96432 13.7525 10.4007 11.9766 12.2114C10.2007 14.0222 8.79192 16.1718 7.8308 18.5377C6.86968 20.9035 6.375 23.4392 6.375 26Z" stroke="black" stroke-width="3" stroke-linecap="round" stroke-linejoin="round"/>
<path id="Vector_2" d="M19.125 21.6667C19.125 23.3906 19.7966 25.0439 20.9922 26.2629C22.1877 27.4818 23.8092 28.1667 25.5 28.1667C27.1908 28.1667 28.8123 27.4818 30.0078 26.2629C31.2034 25.0439 31.875 23.3906 31.875 21.6667C31.875 19.9428 31.2034 18.2895 30.0078 17.0705C28.8123 15.8515 27.1908 15.1667 25.5 15.1667C23.8092 15.1667 22.1877 15.8515 20.9922 17.0705C19.7966 18.2895 19.125 19.9428 19.125 21.6667Z" stroke="black" stroke-width="3" stroke-linecap="round" stroke-linejoin="round"/>
<path id="Vector_3" d="M13.1071 40.8395C13.633 39.0547 14.7092 37.4902 16.1761 36.3783C17.6429 35.2663 19.4222 34.6661 21.2501 34.6667H29.7501C31.5802 34.666 33.3617 35.2677 34.8296 36.3822C36.2975 37.4967 37.3734 39.0645 37.8973 40.8525" stroke="black" stroke-width="3" stroke-linecap="round" stroke-linejoin="round"/>
</g>
<defs>
<clipPath id="clip0_22_219">
<rect width="51" height="52" fill="white"/>
</clipPath>
</defs>
</svg>
